PathFileType	4	(X/Y/Z)	 s05c0001.trc
DataRate	CameraRate	NumFrames	NumMarkers	Units	OrigDataRate	OrigDataStartFrame	OrigNumFrames
200	200	4	49	mm	200	251	2000
Frame#	Time	racr			lacr			c7			jug			rlel			rdr			llel			ldr			s2			lic			ric			lasi			rasi			rpsi			lpsi			rgt			lgt			rth1			rth2			rth3			rth4			rlfc			rmfc			rsh1			rsh2			rsh3			rsh4			rlmal			rmmal			rcal			rtoe			rmt5			rmt1			lth1			lth2			lth4			lth3			llfc			lmfc			lsh1			lsh2			lsh3			lsh4			llmal			lmmal			lcal			ltoe			lmt1			lmt5			
		X1	Y1	Z1	X2	Y2	Z2	X3	Y3	Z3	X4	Y4	Z4	X5	Y5	Z5	X6	Y6	Z6	X7	Y7	Z7	X8	Y8	Z8	X9	Y9	Z9	X10	Y10	Z10	X11	Y11	Z11	X12	Y12	Z12	X13	Y13	Z13	X14	Y14	Z14	X15	Y15	Z15	X16	Y16	Z16	X17	Y17	Z17	X18	Y18	Z18	X19	Y19	Z19	X20	Y20	Z20	X21	Y21	Z21	X22	Y22	Z22	X23	Y23	Z23	X24	Y24	Z24	X25	Y25	Z25	X26	Y26	Z26	X27	Y27	Z27	X28	Y28	Z28	X29	Y29	Z29	X30	Y30	Z30	X31	Y31	Z31	X32	Y32	Z32	X33	Y33	Z33	X34	Y34	Z34	X35	Y35	Z35	X36	Y36	Z36	X37	Y37	Z37	X38	Y38	Z38	X39	Y39	Z39	X40	Y40	Z40	X41	Y41	Z41	X42	Y42	Z42	X43	Y43	Z43	X44	Y44	Z44	X45	Y45	Z45	X46	Y46	Z46	X47	Y47	Z47	X48	Y48	Z48	X49	Y49	Z49	
251	1.2550	268.591921	1528.541465	347.601311	256.083674	1534.584597	1.193437	202.366175	1570.950644	170.344910	345.671213	1484.018465	169.454273	236.776155	1282.355268	533.098017	306.323334	1137.762187	742.041505	201.625833	1291.394532	-194.074589	233.691523	1155.617010	-431.346741	178.564356	1035.696031	180.572314	319.977045	1095.106895	30.880305	322.873919	1076.433101	316.545333	372.887715	1029.401978	63.019748	379.523273	1020.207895	284.414771	202.321281	1068.141655	223.848169	199.688898	1072.140661	134.616698	273.562892	923.197894	334.522133	245.958149	953.802909	10.295161	276.652256	824.894771	350.725960	288.473111	735.915235	349.794917	253.952115	655.910644	338.004463	324.959196	732.190753	341.149802	256.319399	507.436708	312.258575	248.976474	506.703016	211.302516	202.984239	410.142307	339.915182	218.130043	322.531088	330.865103	190.164025	242.214363	323.608464	250.479728	323.023981	308.092250	187.223881	109.627605	305.757222	212.938657	124.596698	227.833831	136.821791	62.430004	249.237821	424.711206	80.987887	309.434998	317.322183	44.867730	355.983689	350.603630	47.176870	242.561979	263.075891	821.965022	-10.914647	285.183564	739.167725	-4.828743	321.196834	738.892086	7.325181	259.719779	652.403019	6.201008	247.190064	516.817946	38.890129	240.015901	509.173872	138.844073	195.979908	400.166941	12.836217	210.920774	314.106835	22.915830	179.305604	231.156909	27.222058	243.179202	313.863643	43.443692	183.258174	108.858567	41.875335	211.893041	127.608570	115.198730	136.937893	57.419042	94.053394	425.066069	79.363251	39.361253	351.280149	48.182252	106.039103	312.855351	38.242232	-5.443358	
252	1.2600	268.590170	1528.543503	347.612404	256.071186	1534.580649	1.197806	202.347169	1570.937100	170.349925	345.680595	1484.034390	169.445553	236.760317	1282.356629	533.089653	306.316180	1137.782273	742.061061	201.608832	1291.386554	-194.078003	233.682735	1155.618499	-431.344545	178.580276	1035.696822	180.568699	320.001590	1095.110678	30.876372	322.847741	1076.430901	316.563313	372.899457	1029.408743	63.038359	379.507807	1020.205521	284.432933	202.331069	1068.133695	223.850424	199.692185	1072.141291	134.622219	273.543808	923.198211	334.534687	245.966501	953.804320	10.308782	276.655861	824.902557	350.745741	288.469108	735.908978	349.796882	253.967486	655.918498	338.006261	324.950241	732.192046	341.147632	256.321232	507.424733	312.264470	248.962540	506.700975	211.311701	202.991075	410.144299	339.920429	218.136892	322.522115	330.875187	190.163667	242.195829	323.607829	250.480323	323.025153	308.098145	187.225703	109.645825	305.752299	212.942775	124.602420	227.816828	136.818522	62.439423	249.232763	424.713850	80.985747	309.439061	317.331579	44.873273	355.996863	350.589662	47.188099	242.542329	263.076267	821.976282	-10.913034	285.192874	739.171528	-4.821712	321.200462	738.913837	7.304938	259.726268	652.414403	6.186037	247.190366	516.819856	38.891693	240.042447	509.151168	138.845583	195.984730	400.175023	12.841661	210.938514	314.095244	22.911805	179.310372	231.173381	27.207890	243.178837	313.853534	43.463218	183.247556	108.862637	41.869741	211.911395	127.599674	115.197716	136.940090	57.420343	94.069614	425.063498	79.357656	39.370597	351.275665	48.183401	106.060095	312.862084	38.239208	-5.442799	
253	1.2650	268.588129	1528.553772	347.614445	256.062094	1534.589838	1.199848	202.328228	1570.940419	170.382537	345.676024	1484.033981	169.460483	236.741991	1282.367538	533.104692	306.322531	1137.798289	742.073269	201.599270	1291.381135	-194.071019	233.687450	1155.614857	-431.333450	178.570682	1035.677798	180.586750	319.984167	1095.119223	30.885299	322.890341	1076.426379	316.555477	372.898314	1029.415985	63.043156	379.526421	1020.218221	284.437534	202.317670	1068.142289	223.857574	199.693036	1072.159657	134.620104	273.558361	923.197632	334.536916	245.964908	953.803156	10.305975	276.646292	824.893399	350.738228	288.452348	735.897311	349.797930	253.961599	655.904710	338.016019	324.945282	732.189902	341.151176	256.406625	507.501567	312.303423	248.978294	506.702398	211.307964	202.992754	410.147261	339.923368	218.148897	322.519060	330.866606	190.164019	242.198375	323.613555	250.460879	323.015586	308.100133	187.223004	109.641307	305.757727	212.936587	124.601015	227.832508	136.813258	62.438167	249.223891	424.711147	80.985827	309.439705	317.328306	44.868844	355.994376	350.587574	47.189517	242.534520	263.088429	821.968305	-10.899945	285.198841	739.187146	-4.801063	321.213394	738.908934	7.325833	259.732390	652.405526	6.213595	247.211684	516.822203	38.892499	240.054268	509.142758	138.863169	196.013316	400.171494	12.845763	210.945526	314.090329	22.934620	179.314197	231.177170	27.208524	243.193618	313.865142	43.443498	183.254394	108.851173	41.872015	211.915659	127.599789	115.203063	136.943729	57.419657	94.070607	425.078340	79.351746	39.371278	351.282462	48.173206	106.039134	312.854376	38.250140	-5.440601	
254	1.2700	268.585714	1528.558955	347.616788	256.081984	1534.596170	1.195346	202.351472	1570.936984	170.321676	345.666525	1484.037057	169.465968	236.735501	1282.405505	533.113087	306.301526	1137.813782	742.099967	201.604135	1291.379739	-194.061737	233.686406	1155.608111	-431.319538	178.574965	1035.668244	180.584997	319.987483	1095.129232	30.892992	322.875545	1076.431465	316.573979	372.909532	1029.417482	63.054431	379.502188	1020.211082	284.440687	202.328514	1068.148829	223.849925	199.695059	1072.148499	134.619024	273.561507	923.193009	334.531489	245.968027	953.809243	10.298009	276.646003	824.897418	350.757181	288.448613	735.906682	349.801156	253.956329	655.898727	338.013360	324.935804	732.204718	341.180385	256.334690	507.437583	312.270966	248.984038	506.718682	211.312754	202.977854	410.150661	339.921321	218.147379	322.528618	330.888838	190.170325	242.214055	323.606016	250.481686	323.017675	308.110675	187.224002	109.646624	305.755574	212.936084	124.601776	227.832170	136.815166	62.419226	249.240289	424.722852	80.984686	309.446386	317.340583	44.881515	355.975516	350.599334	47.199540	242.565091	263.104297	821.975635	-10.895935	285.209964	739.182105	-4.784004	321.222529	738.914498	7.341679	259.740642	652.416658	6.212582	247.211701	516.828787	38.902951	240.056091	509.149642	138.846430	196.017716	400.178328	12.847417	210.943446	314.099976	22.928820	179.315386	231.196387	27.217289	243.200380	313.849904	43.465479	183.259598	108.861915	41.873245	211.927491	127.558577	115.211765	136.943326	57.419282	94.077461	425.077934	79.352863	39.367093	351.262049	48.175785	106.050268	312.848330	38.250551	-5.441926	
